<svg xmlns="http://www.w3.org/2000/svg" viewBox="0 0 935.2 642.11"><defs><style>.cls-1,.cls-26,.cls-54{fill:none;}.cls-10,.cls-18,.cls-19,.cls-2,.cls-23,.cls-25{isolation:isolate;fill:#333;}.cls-10,.cls-18,.cls-19,.cls-2{font-size:12.51px;font-family:Lato-Regular, Lato;}.cls-3{letter-spacing:-0.01em;}.cls-4{letter-spacing:-0.04em;}.cls-5{letter-spacing:-0.01em;}.cls-6{letter-spacing:-0.01em;}.cls-7{letter-spacing:-0.01em;}.cls-8{letter-spacing:-0.02em;}.cls-9{letter-spacing:0em;}.cls-10{letter-spacing:-0.03em;}.cls-11{letter-spacing:0em;}.cls-12{letter-spacing:-0.01em;}.cls-13{letter-spacing:-0.01em;}.cls-14{letter-spacing:-0.02em;}.cls-15{letter-spacing:-0.02em;}.cls-16{letter-spacing:-0.01em;}.cls-17{letter-spacing:-0.01em;}.cls-18{letter-spacing:-0.01em;}.cls-19{letter-spacing:-0.02em;}.cls-20{letter-spacing:-0.01em;}.cls-21{letter-spacing:0em;}.cls-22{letter-spacing:-0.01em;}.cls-23{font-size:20px;font-family:Arial-BoldMT, Arial;font-weight:700;}.cls-24{letter-spacing:-0.04em;}.cls-25{font-size:16px;font-family:ArialMT, Arial;}.cls-26{stroke:#ddd;stroke-width:2.25px;}.cls-27,.cls-28,.cls-29,.cls-30,.cls-31,.cls-32,.cls-33,.cls-34,.cls-35,.cls-36,.cls-38,.cls-39,.cls-40,.cls-41,.cls-42,.cls-47,.cls-48,.cls-49,.cls-50,.cls-51{stroke:#d6d6d6;}.cls-27,.cls-28,.cls-29,.cls-30,.cls-31,.cls-32,.cls-33,.cls-34,.cls-35,.cls-36,.cls-37,.cls-38,.cls-39,.cls-40,.cls-41,.cls-42,.cls-43,.cls-44,.cls-45,.cls-46,.cls-47,.cls-48,.cls-49,.cls-50,.cls-51,.cls-52{stroke-linecap:round;}.cls-27{stroke-width:9.27px;}.cls-28{stroke-width:9.39px;}.cls-29{stroke-width:10.51px;}.cls-30,.cls-45{stroke-width:4.78px;}.cls-31,.cls-37{stroke-width:4.51px;}.cls-32{stroke-width:10.3px;}.cls-33,.cls-52{stroke-width:5.94px;}.cls-34{stroke-width:5.51px;}.cls-35,.cls-44{stroke-width:5.04px;}.cls-36{stroke-width:9.51px;}.cls-37,.cls-43,.cls-44,.cls-45,.cls-46,.cls-52{stroke:#b0abff;}.cls-38{stroke-width:9.15px;}.cls-39{stroke-width:9.03px;}.cls-40{stroke-width:8.9px;}.cls-41{stroke-width:6.87px;}.cls-42{stroke-width:6.69px;}.cls-43,.cls-49{stroke-width:6.51px;}.cls-46{stroke-width:5.28px;}.cls-47{stroke-width:7.2px;}.cls-48{stroke-width:7.03px;}.cls-50{stroke-width:6.33px;}.cls-51{stroke-width:6.14px;}.cls-53{fill:#fff386;}.cls-53,.cls-55{stroke:#000;}.cls-54{stroke:#231f20;stroke-width:2px;}.cls-55{fill:#685fff;stroke-width:0.5px;}</style></defs><g id="Layer_2" data-name="Layer 2"><g id="Background_Scatter" data-name="Background Scatter"><rect class="cls-1" x="40.56" width="894.64" height="642.11"/></g><g id="scatter"><g id="gridText"><g id="Y"><text class="cls-2" transform="translate(62.36 97.13) scale(1.02 1)"><tspan class="cls-3">S</tspan><tspan x="6.65" y="0">pain</tspan></text><text class="cls-2" transform="translate(55.45 135.97) scale(1.02 1)"><tspan class="cls-4">F</tspan><tspan class="cls-5" x="6.53" y="0">r</tspan><tspan x="10.99" y="0">an</tspan><tspan class="cls-6" x="24.18" y="0">c</tspan><tspan x="30.04" y="0">e</tspan></text><text class="cls-2" transform="translate(41.59 174.82) scale(1.02 1)">Lithuania</text><text class="cls-2" transform="translate(0 213.66) scale(1.02 1)"><tspan class="cls-7">T</tspan><tspan x="7.28" y="0">he </tspan><tspan class="cls-8" x="24.06" y="0">N</tspan><tspan class="cls-9" x="33.42" y="0">e</tspan><tspan x="39.97" y="0">therlands</tspan></text><text class="cls-10" transform="translate(54.67 252.5) scale(1.02 1)">P<tspan class="cls-11" x="7.18" y="0">oland</tspan></text><text class="cls-2" transform="translate(49.04 291.35) scale(1.02 1)"><tspan class="cls-8">N</tspan><tspan x="9.35" y="0">or</tspan><tspan class="cls-12" x="21" y="0">w</tspan><tspan class="cls-13" x="30.75" y="0">a</tspan><tspan class="cls-14" x="36.81" y="0">y</tspan></text><text class="cls-2" transform="translate(57.53 330.19) scale(1.02 1)"><tspan class="cls-15">R</tspan><tspan x="7.58" y="0">ussia</tspan></text><text class="cls-2" transform="translate(42.19 369.03) scale(1.02 1)"><tspan class="cls-16">G</tspan><tspan x="9.06" y="0">erma</tspan><tspan class="cls-17" x="36.72" y="0">n</tspan><tspan class="cls-14" x="43.54" y="0">y</tspan></text><text class="cls-18" transform="translate(69.22 407.88) scale(1.02 1)">I<tspan class="cls-11" x="3.32" y="0">tal</tspan><tspan class="cls-14" x="16.97" y="0">y</tspan></text><text class="cls-19" transform="translate(27.91 446.72) scale(1.02 1)">S<tspan class="cls-11" x="6.57" y="0">wit</tspan><tspan class="cls-20" x="23.88" y="0">z</tspan><tspan class="cls-21" x="29.41" y="0">erland</tspan></text><text class="cls-2" transform="translate(48.3 485.56) scale(1.02 1)"><tspan class="cls-22">E</tspan><tspan x="7.05" y="0">ngland</tspan></text></g></g><g id="axisText"><text class="cls-23" transform="translate(431.61 601.32)">Sampling<tspan class="cls-24" x="90.01" y="0"> </tspan><tspan x="94.82" y="0">Age</tspan></text></g><g id="gridText-2" data-name="gridText"><text class="cls-25" transform="translate(123.41 565.26)">1200</text><text class="cls-25" transform="translate(241.22 565.26)">1300</text><text class="cls-25" transform="translate(359.03 565.26)">1400</text><text class="cls-25" transform="translate(476.85 565.26)">1500</text><text class="cls-25" transform="translate(594.66 565.26)">1600</text><text class="cls-25" transform="translate(712.47 565.26)">1700</text><text class="cls-25" transform="translate(830.29 565.26)">1800</text></g><g id="majorGrid"><g id="Vertical"><path class="cls-26" d="M846.38,530.09V41.15"/><path class="cls-26" d="M142,530.09V41.15"/><path class="cls-26" d="M259.43,530.09V41.15"/><path class="cls-26" d="M376.82,530.09V41.15"/><path class="cls-26" d="M494.21,530.09V41.15"/><path class="cls-26" d="M611.6,530.09V41.15"/><path class="cls-26" d="M729,530.09V41.15"/></g></g><g id="branchStem"><path id="branchS_NODE11" data-name="branchS NODE11" class="cls-27" d="M293.47,369H373.3"/><path id="branchS_NODE10" data-name="branchS NODE10" class="cls-28" d="M286.43,369h7"/><path id="branchS_NODE0" data-name="branchS NODE0" class="cls-29" d="M228.91,369h0"/><path id="branchS_NODE1" data-name="branchS NODE1" class="cls-30" d="M228.91,369l45.78-77.68"/><path id="branchS_SAMEA5054093" data-name="branchS SAMEA5054093" class="cls-31" d="M274.69,291.35,299.34,136"/><path id="branchS_SAMEA5054092" data-name="branchS SAMEA5054092" class="cls-31" d="M274.69,291.35h19.95"/><path id="branchS_NODE2" data-name="branchS NODE2" class="cls-32" d="M228.91,369h44.6"/><path id="branchS_NODE3" data-name="branchS NODE3" class="cls-33" d="M273.51,369h15.26"/><path id="branchS_NODE4" data-name="branchS NODE4" class="cls-30" d="M288.77,369h14.09"/><path id="branchS_SAMEA3937653" data-name="branchS SAMEA3937653" class="cls-31" d="M302.86,369l27-271.9"/><path id="branchS_SAMEA5818811" data-name="branchS SAMEA5818811" class="cls-31" d="M302.86,369h5.87"/><path id="branchS_NODE5" data-name="branchS NODE5" class="cls-34" d="M288.77,369l7.05-38.84"/><path id="branchS_NODE6" data-name="branchS NODE6" class="cls-30" d="M295.82,330.19h10.56"/><path id="branchS_SAMN00715800" data-name="branchS SAMN00715800" class="cls-31" d="M306.38,330.19,317,485.56"/><path id="branchS_SAMEA5818806" data-name="branchS SAMEA5818806" class="cls-31" d="M306.38,330.19h11.74"/><path id="branchS_NODE7" data-name="branchS NODE7" class="cls-35" d="M295.82,330.19l10.56-116.53"/><path id="branchS_SAMEA5054090" data-name="branchS SAMEA5054090" class="cls-31" d="M306.38,213.66h11.74"/><path id="branchS_SAMEA5054089" data-name="branchS SAMEA5054089" class="cls-31" d="M311.08,213.66h7"/><path id="branchS_SAMEA3937654" data-name="branchS SAMEA3937654" class="cls-31" d="M311.08,213.66l43.43,116.53"/><path id="branchS_NODE9" data-name="branchS NODE9" class="cls-36" d="M273.51,369h12.92"/><path id="branchS_SAMEA7293136" data-name="branchS SAMEA7293136" class="cls-31" d="M286.43,369l31.69,38.85"/><path id="branchS_SAMEA5818809" data-name="branchS SAMEA5818809" class="cls-37" d="M293.47,369h8.22"/><path id="branchS_SAMEA5818817" data-name="branchS SAMEA5818817" class="cls-31" d="M373.3,369H523.55"/><path id="branchS_NODE12" data-name="branchS NODE12" class="cls-38" d="M373.3,369l42.26-194.21"/><path id="branchS_SAMEA5818815" data-name="branchS SAMEA5818815" class="cls-31" d="M415.56,174.82l85.69,310.74"/><path id="branchS_NODE13" data-name="branchS NODE13" class="cls-39" d="M415.56,174.82h21.13"/><path id="branchS_SAMEA6651390" data-name="branchS SAMEA6651390" class="cls-31" d="M436.69,174.82h5.87"/><path id="branchS_NODE14" data-name="branchS NODE14" class="cls-40" d="M436.69,174.82H486"/><path id="branchS_NODE15" data-name="branchS NODE15" class="cls-41" d="M486,174.82l55.17,155.37"/><path id="branchS_SAMEA7313243_45" data-name="branchS SAMEA7313243 45" class="cls-31" d="M541.16,330.19H552.9"/><path id="branchS_NODE16" data-name="branchS NODE16" class="cls-42" d="M541.16,330.19l42.26,155.37"/><path id="branchS_SAMEA5818800" data-name="branchS SAMEA5818800" class="cls-37" d="M583.42,485.56h25.83"/><path id="branchS_NODE17" data-name="branchS NODE17" class="cls-43" d="M583.42,485.56h11.74"/><path id="branchS_NODE18" data-name="branchS NODE18" class="cls-44" d="M595.16,485.56H601"/><path id="branchS_SAMEA5818798" data-name="branchS SAMEA5818798" class="cls-37" d="M601,485.56h8.22"/><path id="branchS_NODE19" data-name="branchS NODE19" class="cls-45" d="M601,485.56h4.7"/><path id="branchS_SAMEA5818799" data-name="branchS SAMEA5818799" class="cls-31" d="M605.73,485.56h3.52"/><path id="branchS_SAMEA5818801" data-name="branchS SAMEA5818801" class="cls-31" d="M605.73,485.56h3.52"/><path id="branchS_NODE20" data-name="branchS NODE20" class="cls-33" d="M595.16,485.56l41.09-155.37"/><path id="branchS_NODE21" data-name="branchS NODE21" class="cls-30" d="M636.25,330.19h12.91"/><path id="branchS_SAMEA7293135" data-name="branchS SAMEA7293135" class="cls-31" d="M649.16,330.19h21.13"/><path id="branchS_SAMEA7313236_38" data-name="branchS SAMEA7313236 38" class="cls-31" d="M649.16,330.19H808.81"/><path id="branchS_NODE22" data-name="branchS NODE22" class="cls-34" d="M636.25,330.19l88-194.22"/><path id="branchS_SAMEA3713715" data-name="branchS SAMEA3713715" class="cls-37" d="M724.29,136h29.35"/><path id="branchS_NODE23" data-name="branchS NODE23" class="cls-46" d="M724.29,136h16.43"/><path id="branchS_SAMEA3713713" data-name="branchS SAMEA3713713" class="cls-37" d="M740.72,136h12.92"/><path id="branchS_NODE24" data-name="branchS NODE24" class="cls-44" d="M740.72,136h4.7"/><path id="branchS_SAMEA3713712" data-name="branchS SAMEA3713712" class="cls-37" d="M745.42,136h8.22"/><path id="branchS_NODE25" data-name="branchS NODE25" class="cls-45" d="M745.42,136h4.7"/><path id="branchS_SAMEA3713711" data-name="branchS SAMEA3713711" class="cls-31" d="M750.12,136h3.52"/><path id="branchS_SAMEA3713714" data-name="branchS SAMEA3713714" class="cls-31" d="M750.12,136h3.52"/><path id="branchS_NODE26" data-name="branchS NODE26" class="cls-47" d="M486,174.82h15.26"/><path id="branchS_SAMEA6637004" data-name="branchS SAMEA6637004" class="cls-31" d="M501.25,174.82h23.48"/><path id="branchS_NODE27" data-name="branchS NODE27" class="cls-48" d="M501.25,174.82h14.09"/><path id="branchS_NODE28" data-name="branchS NODE28" class="cls-35" d="M515.34,174.82h16.43"/><path id="branchS_SAMEA5818805" data-name="branchS SAMEA5818805" class="cls-31" d="M531.77,174.82,559.94,369"/><path id="branchS_NODE29" data-name="branchS NODE29" class="cls-30" d="M531.77,174.82h5.87"/><path id="branchS_SAMEA7313246_49" data-name="branchS SAMEA7313246 49" class="cls-31" d="M537.64,174.82,552.9,252.5"/><path id="branchS_SAMEA6637002" data-name="branchS SAMEA6637002" class="cls-31" d="M537.64,174.82h12.91"/><path id="branchS_NODE30" data-name="branchS NODE30" class="cls-49" d="M515.34,174.82,531.77,369"/><path id="branchS_SAMEA5818808" data-name="branchS SAMEA5818808" class="cls-31" d="M531.77,369h14.09"/><path id="branchS_NODE31" data-name="branchS NODE31" class="cls-50" d="M531.77,369h12.91"/><path id="branchS_SAMEA5818803" data-name="branchS SAMEA5818803" class="cls-31" d="M544.68,369H650.33"/><path id="branchS_NODE32" data-name="branchS NODE32" class="cls-51" d="M544.68,369l8.22,77.69"/><path id="branchS_SAMEA5818822" data-name="branchS SAMEA5818822" class="cls-37" d="M552.9,446.72h11.74"/><path id="branchS_NODE33" data-name="branchS NODE33" class="cls-52" d="M552.9,446.72h3.52"/><path id="branchS_NODE34" data-name="branchS NODE34" class="cls-44" d="M556.42,446.72h2.35"/><path id="branchS_SAMEA5818821" data-name="branchS SAMEA5818821" class="cls-31" d="M558.77,446.72h5.87"/><path id="branchS_NODE35" data-name="branchS NODE35" class="cls-30" d="M558.77,446.72h3.52"/><path id="branchS_SAMEA5818830" data-name="branchS SAMEA5818830" class="cls-31" d="M562.29,446.72h2.35"/><path id="branchS_SAMEA5818825" data-name="branchS SAMEA5818825" class="cls-31" d="M562.29,446.72h2.35"/><path id="branchS_NODE36" data-name="branchS NODE36" class="cls-46" d="M556.42,446.72h3.52"/><path id="branchS_NODE37" data-name="branchS NODE37" class="cls-30" d="M559.94,446.72h2.35"/><path id="branchS_SAMEA5818829" data-name="branchS SAMEA5818829" class="cls-31" d="M562.29,446.72h2.35"/><path id="branchS_SAMEA5818826" data-name="branchS SAMEA5818826" class="cls-31" d="M562.29,446.72h2.35"/><path id="branchS_NODE38" data-name="branchS NODE38" class="cls-30" d="M559.94,446.72h2.35"/><path id="branchS_SAMEA5818828" data-name="branchS SAMEA5818828" class="cls-31" d="M562.29,446.72h2.35"/><path id="branchS_SAMEA5818818" data-name="branchS SAMEA5818818" class="cls-31" d="M562.29,446.72h2.35"/><path id="branchS_NODE8" data-name="branchS NODE8" class="cls-30" d="M306.38,213.66h4.7"/></g><g id="Tips"><ellipse id="tip_SAMEA5054093" data-name="tip SAMEA5054093" class="cls-53" cx="299.34" cy="135.97" rx="6.36" ry="6.25"/><ellipse id="tip_SAMEA5054092" data-name="tip SAMEA5054092" class="cls-53" cx="294.64" cy="291.35" rx="6.36" ry="6.25"/><ellipse id="tip_SAMEA3937653" data-name="tip SAMEA3937653" class="cls-53" cx="329.86" cy="97.13" rx="6.36" ry="6.25"/><ellipse id="tip_SAMEA5818811" data-name="tip SAMEA5818811" class="cls-53" cx="308.73" cy="369.03" rx="6.36" ry="6.25"/><ellipse id="tip_SAMN00715800" data-name="tip SAMN00715800" class="cls-53" cx="316.95" cy="485.56" rx="6.36" ry="6.25"/><ellipse id="tip_SAMEA5818806" data-name="tip SAMEA5818806" class="cls-53" cx="318.12" cy="330.19" rx="6.36" ry="6.25"/><ellipse id="tip_SAMEA5054090" data-name="tip SAMEA5054090" class="cls-53" cx="318.12" cy="213.66" rx="6.36" ry="6.25"/><ellipse id="tip_SAMEA5054089" data-name="tip SAMEA5054089" class="cls-53" cx="318.12" cy="213.66" rx="6.36" ry="6.25"/><ellipse id="tip_SAMEA3937654" data-name="tip SAMEA3937654" class="cls-53" cx="354.51" cy="330.19" rx="6.36" ry="6.25"/><ellipse id="tip_SAMEA7293136" data-name="tip SAMEA7293136" class="cls-53" cx="318.12" cy="407.88" rx="6.36" ry="6.25"/><ellipse id="tip_SAMEA5818809" data-name="tip SAMEA5818809" class="cls-53" cx="301.69" cy="369.03" rx="6.36" ry="6.25"/><ellipse id="tip_SAMEA5818817" data-name="tip SAMEA5818817" class="cls-53" cx="523.55" cy="369.03" rx="6.36" ry="6.25"/><ellipse id="tip_SAMEA5818815" data-name="tip SAMEA5818815" class="cls-53" cx="501.25" cy="485.56" rx="6.36" ry="6.25"/><ellipse id="tip_SAMEA6651390" data-name="tip SAMEA6651390" class="cls-53" cx="442.56" cy="174.82" rx="6.36" ry="6.25"/><ellipse id="tip_SAMEA7313243_45" data-name="tip SAMEA7313243 45" class="cls-53" cx="552.9" cy="330.19" rx="6.36" ry="6.25"/><ellipse id="tip_SAMEA5818800" data-name="tip SAMEA5818800" class="cls-53" cx="609.25" cy="485.56" rx="6.36" ry="6.25"/><ellipse id="tip_SAMEA5818798" data-name="tip SAMEA5818798" class="cls-53" cx="609.25" cy="485.56" rx="6.36" ry="6.25"/><ellipse id="tip_SAMEA5818799" data-name="tip SAMEA5818799" class="cls-53" cx="609.25" cy="485.56" rx="6.36" ry="6.25"/><ellipse id="tip_SAMEA5818801" data-name="tip SAMEA5818801" class="cls-53" cx="609.25" cy="485.56" rx="6.36" ry="6.25"/><ellipse id="tip_SAMEA7293135" data-name="tip SAMEA7293135" class="cls-53" cx="670.29" cy="330.19" rx="6.36" ry="6.25"/><ellipse id="tip_SAMEA7313236_38" data-name="tip SAMEA7313236 38" class="cls-53" cx="808.81" cy="330.19" rx="6.36" ry="6.25"/><ellipse id="tip_SAMEA3713715" data-name="tip SAMEA3713715" class="cls-53" cx="753.64" cy="135.97" rx="6.36" ry="6.25"/><ellipse id="tip_SAMEA3713713" data-name="tip SAMEA3713713" class="cls-53" cx="753.64" cy="135.97" rx="6.36" ry="6.25"/><ellipse id="tip_SAMEA3713712" data-name="tip SAMEA3713712" class="cls-53" cx="753.64" cy="135.97" rx="6.36" ry="6.25"/><ellipse id="tip_SAMEA3713711" data-name="tip SAMEA3713711" class="cls-53" cx="753.64" cy="135.97" rx="6.36" ry="6.25"/><ellipse id="tip_SAMEA3713714" data-name="tip SAMEA3713714" class="cls-53" cx="753.64" cy="135.97" rx="6.36" ry="6.25"/><ellipse id="tip_SAMEA6637004" data-name="tip SAMEA6637004" class="cls-53" cx="524.73" cy="174.82" rx="6.36" ry="6.25"/><ellipse id="tip_SAMEA5818805" data-name="tip SAMEA5818805" class="cls-53" cx="559.94" cy="369.03" rx="6.36" ry="6.25"/><ellipse id="tip_SAMEA7313246_49" data-name="tip SAMEA7313246 49" class="cls-53" cx="552.9" cy="252.5" rx="6.36" ry="6.25"/><ellipse id="tip_SAMEA6637002" data-name="tip SAMEA6637002" class="cls-53" cx="550.55" cy="174.82" rx="6.36" ry="6.25"/><ellipse id="tip_SAMEA5818808" data-name="tip SAMEA5818808" class="cls-53" cx="545.86" cy="369.03" rx="6.36" ry="6.25"/><ellipse id="tip_SAMEA5818803" data-name="tip SAMEA5818803" class="cls-53" cx="650.33" cy="369.03" rx="6.36" ry="6.25"/><ellipse id="tip_SAMEA5818822" data-name="tip SAMEA5818822" class="cls-53" cx="564.64" cy="446.72" rx="6.36" ry="6.25"/><ellipse id="tip_SAMEA5818821" data-name="tip SAMEA5818821" class="cls-53" cx="564.64" cy="446.72" rx="6.36" ry="6.25"/><ellipse id="tip_SAMEA5818830" data-name="tip SAMEA5818830" class="cls-53" cx="564.64" cy="446.72" rx="6.36" ry="6.25"/><ellipse id="tip_SAMEA5818825" data-name="tip SAMEA5818825" class="cls-53" cx="564.64" cy="446.72" rx="6.36" ry="6.25"/><ellipse id="tip_SAMEA5818829" data-name="tip SAMEA5818829" class="cls-53" cx="564.64" cy="446.72" rx="6.36" ry="6.25"/><ellipse id="tip_SAMEA5818826" data-name="tip SAMEA5818826" class="cls-53" cx="564.64" cy="446.72" rx="6.36" ry="6.25"/><ellipse id="tip_SAMEA5818828" data-name="tip SAMEA5818828" class="cls-53" cx="564.64" cy="446.72" rx="6.36" ry="6.25"/><ellipse id="tip_SAMEA5818818" data-name="tip SAMEA5818818" class="cls-53" cx="564.64" cy="446.72" rx="6.36" ry="6.25"/></g><g id="Frame"><rect id="Frame-2" data-name="Frame" class="cls-54" x="111.72" y="41.15" width="766.34" height="489.07"/><g id="Xticks"><line class="cls-54" x1="140.87" y1="541.47" x2="140.87" y2="530.75"/><line class="cls-54" x1="258.69" y1="541.32" x2="258.69" y2="530.6"/><line class="cls-54" x1="376.5" y1="541.54" x2="376.5" y2="530.82"/><line class="cls-54" x1="494.31" y1="540.81" x2="494.31" y2="530.09"/><line class="cls-54" x1="612.13" y1="541.06" x2="612.13" y2="530.34"/><line class="cls-54" x1="729.94" y1="541.53" x2="729.94" y2="530.81"/><line class="cls-54" x1="847.75" y1="541.07" x2="847.75" y2="530.35"/><line class="cls-54" x1="199.78" y1="536.83" x2="199.78" y2="530.75"/><line class="cls-54" x1="317.59" y1="536.68" x2="317.59" y2="530.6"/><line class="cls-54" x1="100.96" y1="248.82" x2="111.68" y2="248.82"/><line class="cls-54" x1="100.96" y1="209.56" x2="111.68" y2="209.56"/><line class="cls-54" x1="100.96" y1="171.65" x2="111.68" y2="171.65"/><line class="cls-54" x1="100.96" y1="132.39" x2="111.68" y2="132.39"/><line class="cls-54" x1="100.96" y1="93.9" x2="111.68" y2="93.9"/><line class="cls-54" x1="100.07" y1="442.79" x2="110.79" y2="442.79"/><line class="cls-54" x1="100.07" y1="404.69" x2="110.79" y2="404.69"/><line class="cls-54" x1="100.07" y1="366.39" x2="110.79" y2="366.39"/><line class="cls-54" x1="100.07" y1="327.52" x2="110.79" y2="327.52"/><line class="cls-54" x1="100.07" y1="288.45" x2="110.79" y2="288.45"/><line class="cls-54" x1="100.89" y1="482.05" x2="111.61" y2="482.05"/><line class="cls-54" x1="435.41" y1="536.91" x2="435.41" y2="530.82"/><line class="cls-54" x1="553.22" y1="536.17" x2="553.22" y2="530.09"/><line class="cls-54" x1="671.03" y1="536.42" x2="671.03" y2="530.34"/><line class="cls-54" x1="788.85" y1="536.9" x2="788.85" y2="530.81"/></g></g><g id="Nodes"><polygon class="cls-55" points="555.03 452.5 551.15 446.65 555.03 440.94 558.92 446.65 555.03 452.5"/><polygon class="cls-55" points="311.16 219.44 307.28 213.59 311.16 207.88 315.04 213.59 311.16 219.44"/><polygon class="cls-55" points="726.68 141.75 722.8 135.91 726.68 130.19 730.57 135.91 726.68 141.75"/><polygon class="cls-55" points="597.45 491.82 593.56 485.97 597.45 480.25 601.33 485.97 597.45 491.82"/><polygon class="cls-55" points="585.67 491.82 581.78 485.97 585.67 480.25 589.55 485.97 585.67 491.82"/><polygon class="cls-55" points="294.67 375.29 290.78 369.44 294.67 363.72 298.55 369.44 294.67 375.29"/></g></g></g></svg>