<svg xmlns="http://www.w3.org/2000/svg" viewBox="0 0 894.64 642.11"><defs><style>.cls-1,.cls-10,.cls-11,.cls-12,.cls-13,.cls-14,.cls-15,.cls-16,.cls-17,.cls-18,.cls-19,.cls-2,.cls-20,.cls-21,.cls-22,.cls-23,.cls-24,.cls-25,.cls-5,.cls-55,.cls-56,.cls-57,.cls-58,.cls-59,.cls-6,.cls-60,.cls-61,.cls-62,.cls-63,.cls-64,.cls-65,.cls-66,.cls-67,.cls-68,.cls-69,.cls-7,.cls-70,.cls-71,.cls-72,.cls-73,.cls-74,.cls-75,.cls-76,.cls-77,.cls-78,.cls-79,.cls-8,.cls-82,.cls-83,.cls-86,.cls-9,.cls-90{fill:none;}.cls-2{stroke:#ddd;}.cls-2,.cls-83,.cls-86{stroke-width:2px;}.cls-10,.cls-11,.cls-12,.cls-13,.cls-14,.cls-15,.cls-16,.cls-17,.cls-18,.cls-19,.cls-20,.cls-21,.cls-22,.cls-23,.cls-24,.cls-25,.cls-26,.cls-27,.cls-28,.cls-3,.cls-4,.cls-5,.cls-6,.cls-7,.cls-8,.cls-9,.cls-92,.cls-93,.cls-94,.cls-95{isolation:isolate;}.cls-3{font-size:16px;}.cls-3,.cls-4{fill:#333;}.cls-3,.cls-81,.cls-88,.cls-92,.cls-94{font-family:ArialMT, Arial;}.cls-4,.cls-84{font-size:20px;}.cls-4,.cls-84,.cls-93{font-family:Arial-BoldMT, Arial;}.cls-26,.cls-27,.cls-28,.cls-4,.cls-84,.cls-93{font-weight:700;}.cls-10,.cls-11,.cls-12,.cls-13,.cls-14,.cls-15,.cls-16,.cls-17,.cls-18,.cls-19,.cls-20,.cls-21,.cls-22,.cls-23,.cls-24,.cls-25,.cls-5,.cls-6,.cls-7,.cls-8,.cls-9{stroke:#d6d6d6;}.cls-5{stroke-width:16px;}.cls-10,.cls-11,.cls-12,.cls-13,.cls-14,.cls-15,.cls-16,.cls-17,.cls-18,.cls-19,.cls-20,.cls-21,.cls-22,.cls-23,.cls-24,.cls-25,.cls-5,.cls-6,.cls-7,.cls-8,.cls-9,.cls-95{opacity:0.5;}.cls-6{stroke-width:9.1px;}.cls-7{stroke-width:8.57px;}.cls-8{stroke-width:15.8px;}.cls-9{stroke-width:11.3px;}.cls-10{stroke-width:10.49px;}.cls-11{stroke-width:9.59px;}.cls-12{stroke-width:15.05px;}.cls-13{stroke-width:14.94px;}.cls-14{stroke-width:14.82px;}.cls-15{stroke-width:14.71px;}.cls-16{stroke-width:14.59px;}.cls-17{stroke-width:14.47px;}.cls-18{stroke-width:12.53px;}.cls-19{stroke-width:12.37px;}.cls-20{stroke-width:12.2px;}.cls-21{stroke-width:10.05px;}.cls-22{stroke-width:12.85px;}.cls-23{stroke-width:12.69px;}.cls-24{stroke-width:12.02px;}.cls-25{stroke-width:11.67px;}.cls-26,.cls-28{font-size:14px;}.cls-26,.cls-27,.cls-28{fill:#777;font-family:Lato-Bold, Lato;}.cls-27{font-size:10.41px;}.cls-28,.cls-36,.cls-45,.cls-46,.cls-47,.cls-48,.cls-54,.cls-61,.cls-63,.cls-69,.cls-70,.cls-71,.cls-72,.cls-73,.cls-78,.cls-79{stroke:#b0abff;}.cls-28{stroke-miterlimit:10;}.cls-29,.cls-30,.cls-31,.cls-32,.cls-33,.cls-34,.cls-35,.cls-37,.cls-38,.cls-39,.cls-40,.cls-41,.cls-42,.cls-43,.cls-44,.cls-49,.cls-50,.cls-51,.cls-52,.cls-53,.cls-55,.cls-56,.cls-57,.cls-58,.cls-59,.cls-60,.cls-62,.cls-64,.cls-65,.cls-66,.cls-67,.cls-68,.cls-74,.cls-75,.cls-76,.cls-77{stroke:#bfbfbf;}.cls-29,.cls-30,.cls-31,.cls-32,.cls-33,.cls-34,.cls-35,.cls-36,.cls-37,.cls-38,.cls-39,.cls-40,.cls-41,.cls-42,.cls-43,.cls-44,.cls-45,.cls-46,.cls-47,.cls-48,.cls-49,.cls-50,.cls-51,.cls-52,.cls-53,.cls-54{stroke-linecap:round;}.cls-29,.cls-55{stroke-width:10px;}.cls-30,.cls-47,.cls-56,.cls-61{stroke-width:4.55px;}.cls-31,.cls-36{stroke-width:4.29px;}.cls-32,.cls-57{stroke-width:9.8px;}.cls-33,.cls-54,.cls-58,.cls-79{stroke-width:5.65px;}.cls-34,.cls-59,.cls-72{stroke-width:5.24px;}.cls-35,.cls-46,.cls-60,.cls-71{stroke-width:4.79px;}.cls-37,.cls-62{stroke-width:9.05px;}.cls-38,.cls-63{stroke-width:8.94px;}.cls-39,.cls-64{stroke-width:8.82px;}.cls-40,.cls-65{stroke-width:8.71px;}.cls-41,.cls-66{stroke-width:8.59px;}.cls-42,.cls-67{stroke-width:8.47px;}.cls-43,.cls-68{stroke-width:6.53px;}.cls-44,.cls-69{stroke-width:6.37px;}.cls-45,.cls-51,.cls-70,.cls-76{stroke-width:6.2px;}.cls-48,.cls-73{stroke-width:5.02px;}.cls-49,.cls-74{stroke-width:6.85px;}.cls-50,.cls-75{stroke-width:6.69px;}.cls-52,.cls-77{stroke-width:6.02px;}.cls-53,.cls-78{stroke-width:5.84px;}.cls-80{fill:#fff386;}.cls-80,.cls-82,.cls-86,.cls-87,.cls-90,.cls-91,.cls-96,.cls-97{stroke:#000;}.cls-81{font-size:8px;}.cls-83{stroke:#231f20;}.cls-85{letter-spacing:-0.07em;}.cls-87,.cls-91{fill:#fff;}.cls-88{font-size:12px;}.cls-89{font-size:10px;font-family:Arial-ItalicMT, Arial;font-style:italic;}.cls-90{stroke-width:0.9px;}.cls-91{stroke-miterlimit:2.52;stroke-width:1.44px;}.cls-92{font-size:8.79px;}.cls-93,.cls-94{font-size:12.9px;}.cls-95{fill:#a1a1a1;stroke:#999;stroke-width:8.21px;}.cls-96,.cls-97{fill:#685fff;}.cls-97{stroke-width:0.5px;}</style></defs><g id="Layer_2" data-name="Layer 2"><g id="Background"><rect class="cls-1" width="894.64" height="642.11"/></g><g id="tree"><g id="axisMajor"><g id="majorGrid"><path class="cls-2" d="M108.05,557V68"/><path class="cls-2" d="M225.86,557V68"/><path class="cls-2" d="M343.67,557V68"/><path class="cls-2" d="M461.49,557V68"/><path class="cls-2" d="M579.3,557V68"/><path class="cls-2" d="M697.12,557V68"/><path class="cls-2" d="M814.93,557V68"/></g></g><g id="gridText"><text class="cls-3" transform="translate(88.77 585.31)">1200</text><text class="cls-3" transform="translate(206.58 585.31)">1300</text><text class="cls-3" transform="translate(324.39 585.31)">1400</text><text class="cls-3" transform="translate(442.21 585.31)">1500</text><text class="cls-3" transform="translate(560.02 585.31)">1600</text><text class="cls-3" transform="translate(677.83 585.31)">1700</text><text class="cls-3" transform="translate(795.65 585.31)">1800</text></g><g id="axisText"><text class="cls-4" transform="translate(446.55 620.15)">Date</text></g><g id="confidenceIntervals"><path id="conf_NODE0" data-name="conf NODE0" class="cls-5" d="M121,497H247.07"/><path id="conf_NODE1" data-name="conf NODE1" class="cls-6" d="M208.19,536h53"/><path id="conf_SAMEA5054093" data-name="conf SAMEA5054093" class="cls-7" d="M265.92,541.87h0"/><path id="conf_SAMEA5054092" data-name="conf SAMEA5054092" class="cls-7" d="M261.2,530.13h0"/><path id="conf_NODE2" data-name="conf NODE2" class="cls-8" d="M212.9,458.09h49.48"/><path id="conf_NODE3" data-name="conf NODE3" class="cls-9" d="M235.28,494.16H273"/><path id="conf_NODE4" data-name="conf NODE4" class="cls-6" d="M257.67,512.51h17.67"/><path id="conf_SAMEA3937653" data-name="conf SAMEA3937653" class="cls-7" d="M296.55,518.38h0"/><path id="conf_SAMEA5818811" data-name="conf SAMEA5818811" class="cls-7" d="M275.34,506.64h0"/><path id="conf_NODE5" data-name="conf NODE5" class="cls-10" d="M243.53,475.81H277.7"/><path id="conf_NODE6" data-name="conf NODE6" class="cls-6" d="M260,489h23.56"/><path id="conf_SAMN00715800" data-name="conf SAMN00715800" class="cls-7" d="M283.59,494.89h0"/><path id="conf_SAMEA5818806" data-name="conf SAMEA5818806" class="cls-7" d="M284.77,483.15h0"/><path id="conf_NODE7" data-name="conf NODE7" class="cls-11" d="M260,462.6h23.56"/><path id="conf_SAMEA5054090" data-name="conf SAMEA5054090" class="cls-7" d="M284.77,471.41h0"/><path id="conf_NODE8" data-name="conf NODE8" class="cls-6" d="M268.27,453.79h16.5"/><path id="conf_SAMEA5054089" data-name="conf SAMEA5054089" class="cls-7" d="M284.77,459.66h0"/><path id="conf_SAMEA3937654" data-name="conf SAMEA3937654" class="cls-7" d="M321.29,447.92h0"/><path id="conf_NODE9" data-name="conf NODE9" class="cls-12" d="M229.39,422h37.7"/><path id="conf_SAMEA7293136" data-name="conf SAMEA7293136" class="cls-7" d="M284.77,436.18h0"/><path id="conf_NODE10" data-name="conf NODE10" class="cls-13" d="M243.53,407.86h24.74"/><path id="conf_SAMEA5818809" data-name="conf SAMEA5818809" class="cls-7" d="M268.27,424.43h0"/><path id="conf_NODE11" data-name="conf NODE11" class="cls-14" d="M289.48,391.28h99"/><path id="conf_SAMEA5818817" data-name="conf SAMEA5818817" class="cls-7" d="M490.94,412.69h0"/><path id="conf_NODE12" data-name="conf NODE12" class="cls-15" d="M349.56,369.87h57.73"/><path id="conf_SAMEA5818815" data-name="conf SAMEA5818815" class="cls-7" d="M468.56,401h0"/><path id="conf_NODE13" data-name="conf NODE13" class="cls-16" d="M390.8,338.79h18.85"/><path id="conf_SAMEA6651390" data-name="conf SAMEA6651390" class="cls-7" d="M409.65,389.2h0"/><path id="conf_NODE14" data-name="conf NODE14" class="cls-17" d="M412,288.37h73"/><path id="conf_NODE15" data-name="conf NODE15" class="cls-18" d="M490.94,360.62h29.45"/><path id="conf_SAMEA7313243_45" data-name="conf SAMEA7313243 45" class="cls-7" d="M520.39,377.46h0"/><path id="conf_NODE16" data-name="conf NODE16" class="cls-19" d="M528.64,343.79h41.24"/><path id="conf_SAMEA5818800" data-name="conf SAMEA5818800" class="cls-7" d="M576.94,365.71h0"/><path id="conf_NODE17" data-name="conf NODE17" class="cls-20" d="M546.31,321.86h28.28"/><path id="conf_NODE18" data-name="conf NODE18" class="cls-11" d="M558.09,345.16h17.68"/><path id="conf_SAMEA5818798" data-name="conf SAMEA5818798" class="cls-7" d="M576.94,354h0"/><path id="conf_NODE19" data-name="conf NODE19" class="cls-6" d="M566.34,336.36h9.43"/><path id="conf_SAMEA5818799" data-name="conf SAMEA5818799" class="cls-7" d="M576.94,342.23h0"/><path id="conf_SAMEA5818801" data-name="conf SAMEA5818801" class="cls-7" d="M576.94,330.48h0"/><path id="conf_NODE20" data-name="conf NODE20" class="cls-9" d="M578.12,298.56H627.6"/><path id="conf_NODE21" data-name="conf NODE21" class="cls-6" d="M597,312.87h37.7"/><path id="conf_SAMEA7293135" data-name="conf SAMEA7293135" class="cls-7" d="M638.21,318.74h0"/><path id="conf_SAMEA7313236_38" data-name="conf SAMEA7313236 38" class="cls-7" d="M777.23,307h0"/><path id="conf_NODE22" data-name="conf NODE22" class="cls-10" d="M659.41,284.24h57.73"/><path id="conf_SAMEA3713715" data-name="conf SAMEA3713715" class="cls-7" d="M721.86,295.25h0"/><path id="conf_NODE23" data-name="conf NODE23" class="cls-21" d="M693.58,273.23H719.5"/><path id="conf_SAMEA3713713" data-name="conf SAMEA3713713" class="cls-7" d="M721.86,283.51h0"/><path id="conf_NODE24" data-name="conf NODE24" class="cls-11" d="M704.18,263h16.5"/><path id="conf_SAMEA3713712" data-name="conf SAMEA3713712" class="cls-7" d="M721.86,271.77h0"/><path id="conf_NODE25" data-name="conf NODE25" class="cls-6" d="M712.43,254.15h9.43"/><path id="conf_SAMEA3713711" data-name="conf SAMEA3713711" class="cls-7" d="M721.86,260h0"/><path id="conf_SAMEA3713714" data-name="conf SAMEA3713714" class="cls-7" d="M721.86,248.28h0"/><path id="conf_NODE26" data-name="conf NODE26" class="cls-22" d="M437.92,216.12h53"/><path id="conf_SAMEA6637004" data-name="conf SAMEA6637004" class="cls-7" d="M492.12,236.54h0"/><path id="conf_NODE27" data-name="conf NODE27" class="cls-23" d="M461.49,195.71H503.9"/><path id="conf_NODE28" data-name="conf NODE28" class="cls-11" d="M480.34,216h36.52"/><path id="conf_SAMEA5818805" data-name="conf SAMEA5818805" class="cls-7" d="M527.46,224.79h0"/><path id="conf_NODE29" data-name="conf NODE29" class="cls-6" d="M487.41,207.18h29.45"/><path id="conf_SAMEA7313246_49" data-name="conf SAMEA7313246 49" class="cls-7" d="M520.39,213.05h0"/><path id="conf_SAMEA6637002" data-name="conf SAMEA6637002" class="cls-7" d="M518,201.3h0"/><path id="conf_NODE30" data-name="conf NODE30" class="cls-20" d="M480.34,175.43h31.81"/><path id="conf_SAMEA5818808" data-name="conf SAMEA5818808" class="cls-7" d="M513.33,189.56h0"/><path id="conf_NODE31" data-name="conf NODE31" class="cls-24" d="M498,161.3h27.1"/><path id="conf_SAMEA5818803" data-name="conf SAMEA5818803" class="cls-7" d="M618.18,177.82h0"/><path id="conf_NODE32" data-name="conf NODE32" class="cls-25" d="M512.15,144.79h16.49"/><path id="conf_SAMEA5818822" data-name="conf SAMEA5818822" class="cls-7" d="M532.18,166.07h0"/><path id="conf_NODE33" data-name="conf NODE33" class="cls-9" d="M516.86,123.5h13"/><path id="conf_NODE34" data-name="conf NODE34" class="cls-11" d="M520.39,145.52H531"/><path id="conf_SAMEA5818821" data-name="conf SAMEA5818821" class="cls-7" d="M532.18,154.33h0"/><path id="conf_NODE35" data-name="conf NODE35" class="cls-6" d="M525.11,136.71h7.07"/><path id="conf_SAMEA5818830" data-name="conf SAMEA5818830" class="cls-7" d="M532.18,142.59h0"/><path id="conf_SAMEA5818825" data-name="conf SAMEA5818825" class="cls-7" d="M532.18,130.84h0"/><path id="conf_NODE36" data-name="conf NODE36" class="cls-21" d="M522.75,101.48h9.43"/><path id="conf_NODE37" data-name="conf NODE37" class="cls-6" d="M526.28,113.23h5.9"/><path id="conf_SAMEA5818829" data-name="conf SAMEA5818829" class="cls-7" d="M532.18,119.1h0"/><path id="conf_SAMEA5818826" data-name="conf SAMEA5818826" class="cls-7" d="M532.18,107.36h0"/><path id="conf_NODE38" data-name="conf NODE38" class="cls-6" d="M526.28,89.74h5.9"/><path id="conf_SAMEA5818828" data-name="conf SAMEA5818828" class="cls-7" d="M532.18,95.61h0"/><path id="conf_SAMEA5818818" data-name="conf SAMEA5818818" class="cls-7" d="M532.18,83.87h0"/></g><g id="branchLabels"><text class="cls-26" transform="translate(262.75 462.82)">*</text><text class="cls-27" transform="translate(249.35 404.74)">*</text><text class="cls-26" transform="translate(296.55 388.46)">*</text><text class="cls-26" transform="translate(357.95 366.61)">*</text><text class="cls-26" transform="translate(388.44 335.92)">*</text><text class="cls-26" transform="translate(480.93 362.23)">*</text><text class="cls-26" transform="translate(528.64 342.24)">*</text><text class="cls-26" transform="translate(551.03 319.89)">*</text><text class="cls-26" transform="translate(581.07 298.56)">*</text><text class="cls-26" transform="translate(607.33 314.03)">*</text><text class="cls-26" transform="translate(649.19 284.25)">*</text><text class="cls-26" transform="translate(697.11 272.38)">*</text><text class="cls-26" transform="translate(485.65 174.63)">*</text><text class="cls-26" transform="translate(500.45 158.81)">*</text><text class="cls-26" transform="translate(510.85 144.26)">*</text><text class="cls-28" transform="translate(518.87 131.71)">*</text></g><g id="branchStem"><path id="branchS_NODE0" data-name="branchS NODE0" class="cls-29" d="M195.23,497h0"/><path id="branchS_NODE1" data-name="branchS NODE1" class="cls-30" d="M195.23,536h46"/><path id="branchS_SAMEA5054093" data-name="branchS SAMEA5054093" class="cls-31" d="M241.18,541.87h24.74"/><path id="branchS_SAMEA5054092" data-name="branchS SAMEA5054092" class="cls-31" d="M241.18,530.13h20"/><path id="branchS_NODE2" data-name="branchS NODE2" class="cls-32" d="M195.23,458.09H240"/><path id="branchS_NODE3" data-name="branchS NODE3" class="cls-33" d="M240,494.16h15.31"/><path id="branchS_NODE4" data-name="branchS NODE4" class="cls-30" d="M255.31,512.51h14.14"/><path id="branchS_SAMEA3937653" data-name="branchS SAMEA3937653" class="cls-31" d="M269.45,518.38h27.1"/><path id="branchS_SAMEA5818811" data-name="branchS SAMEA5818811" class="cls-31" d="M269.45,506.64h5.89"/><path id="branchS_NODE5" data-name="branchS NODE5" class="cls-34" d="M255.31,475.81h7.07"/><path id="branchS_NODE6" data-name="branchS NODE6" class="cls-30" d="M262.38,489H273"/><path id="branchS_SAMN00715800" data-name="branchS SAMN00715800" class="cls-31" d="M273,494.89h10.61"/><path id="branchS_SAMEA5818806" data-name="branchS SAMEA5818806" class="cls-31" d="M273,483.15h11.79"/><path id="branchS_NODE7" data-name="branchS NODE7" class="cls-35" d="M262.38,462.6H273"/><path id="branchS_SAMEA5054090" data-name="branchS SAMEA5054090" class="cls-31" d="M273,471.41h11.79"/><path id="branchS_NODE8" data-name="branchS NODE8" class="cls-30" d="M273,453.79h4.72"/><path id="branchS_SAMEA5054089" data-name="branchS SAMEA5054089" class="cls-36" d="M277.7,459.66h7.07"/><path id="branchS_SAMEA3937654" data-name="branchS SAMEA3937654" class="cls-31" d="M277.7,447.92h43.59"/><path id="branchS_NODE9" data-name="branchS NODE9" class="cls-37" d="M240,422h13"/><path id="branchS_SAMEA7293136" data-name="branchS SAMEA7293136" class="cls-31" d="M250.47,436.18h34.3"/><path id="branchS_NODE10" data-name="branchS NODE10" class="cls-38" d="M253,407.86H260"/><path id="branchS_SAMEA5818809" data-name="branchS SAMEA5818809" class="cls-36" d="M260,424.43h8.24"/><path id="branchS_NODE11" data-name="branchS NODE11" class="cls-39" d="M260,391.28h80.11"/><path id="branchS_SAMEA5818817" data-name="branchS SAMEA5818817" class="cls-31" d="M337.79,412.69H490.94"/><path id="branchS_NODE12" data-name="branchS NODE12" class="cls-40" d="M340.14,369.87h42.41"/><path id="branchS_SAMEA5818815" data-name="branchS SAMEA5818815" class="cls-31" d="M380.3,401h88.26"/><path id="branchS_NODE13" data-name="branchS NODE13" class="cls-41" d="M382.55,338.79h21.21"/><path id="branchS_SAMEA6651390" data-name="branchS SAMEA6651390" class="cls-31" d="M403.76,389.2h5.89"/><path id="branchS_NODE14" data-name="branchS NODE14" class="cls-42" d="M403.76,288.37h49.48"/><path id="branchS_NODE15" data-name="branchS NODE15" class="cls-43" d="M452.11,360.62h56.5"/><path id="branchS_SAMEA7313243_45" data-name="branchS SAMEA7313243 45" class="cls-31" d="M507.54,377.46h12.85"/><path id="branchS_NODE16" data-name="branchS NODE16" class="cls-44" d="M508.61,343.79H551"/><path id="branchS_SAMEA5818800" data-name="branchS SAMEA5818800" class="cls-36" d="M550,365.71h27"/><path id="branchS_NODE17" data-name="branchS NODE17" class="cls-45" d="M551,321.86h11.78"/><path id="branchS_NODE18" data-name="branchS NODE18" class="cls-46" d="M562.81,345.16h5.89"/><path id="branchS_SAMEA5818798" data-name="branchS SAMEA5818798" class="cls-36" d="M568.7,354h8.24"/><path id="branchS_NODE19" data-name="branchS NODE19" class="cls-47" d="M568.7,336.36h4.71"/><path id="branchS_SAMEA5818799" data-name="branchS SAMEA5818799" class="cls-31" d="M573.41,342.23h3.53"/><path id="branchS_SAMEA5818801" data-name="branchS SAMEA5818801" class="cls-31" d="M573.41,330.48h3.53"/><path id="branchS_NODE20" data-name="branchS NODE20" class="cls-33" d="M562.81,298.56H604"/><path id="branchS_NODE21" data-name="branchS NODE21" class="cls-30" d="M604,312.87h13"/><path id="branchS_SAMEA7293135" data-name="branchS SAMEA7293135" class="cls-31" d="M617,318.74h21.21"/><path id="branchS_SAMEA7313236_38" data-name="branchS SAMEA7313236 38" class="cls-31" d="M617,307H777.23"/><path id="branchS_NODE22" data-name="branchS NODE22" class="cls-34" d="M604,284.24H692.4"/><path id="branchS_SAMEA3713715" data-name="branchS SAMEA3713715" class="cls-36" d="M692,295.25h29.82"/><path id="branchS_NODE23" data-name="branchS NODE23" class="cls-48" d="M692.4,273.23h16.5"/><path id="branchS_SAMEA3713713" data-name="branchS SAMEA3713713" class="cls-36" d="M708.9,283.51h13"/><path id="branchS_NODE24" data-name="branchS NODE24" class="cls-46" d="M708.9,263h4.71"/><path id="branchS_SAMEA3713712" data-name="branchS SAMEA3713712" class="cls-36" d="M713.61,271.77h8.25"/><path id="branchS_NODE25" data-name="branchS NODE25" class="cls-47" d="M713.61,254.15h4.71"/><path id="branchS_SAMEA3713711" data-name="branchS SAMEA3713711" class="cls-36" d="M718.32,260h3.54"/><path id="branchS_SAMEA3713714" data-name="branchS SAMEA3713714" class="cls-36" d="M718.32,248.28h3.54"/><path id="branchS_NODE26" data-name="branchS NODE26" class="cls-49" d="M453.24,216.12h15.32"/><path id="branchS_SAMEA6637004" data-name="branchS SAMEA6637004" class="cls-31" d="M467,236.53l25.08,0"/><path id="branchS_NODE27" data-name="branchS NODE27" class="cls-50" d="M468.56,195.71h14.13"/><path id="branchS_NODE28" data-name="branchS NODE28" class="cls-35" d="M482.69,216h16.5"/><path id="branchS_SAMEA5818805" data-name="branchS SAMEA5818805" class="cls-31" d="M499.19,224.79h28.27"/><path id="branchS_NODE29" data-name="branchS NODE29" class="cls-30" d="M499.19,207.18h5.89"/><path id="branchS_SAMEA7313246_49" data-name="branchS SAMEA7313246 49" class="cls-31" d="M505.08,213.05h15.31"/><path id="branchS_SAMEA6637002" data-name="branchS SAMEA6637002" class="cls-31" d="M505.08,201.3h13"/><path id="branchS_NODE30" data-name="branchS NODE30" class="cls-51" d="M482.69,175.43h16.5"/><path id="branchS_SAMEA5818808" data-name="branchS SAMEA5818808" class="cls-31" d="M498,189.56h15.32"/><path id="branchS_NODE31" data-name="branchS NODE31" class="cls-52" d="M499.19,161.3h13"/><path id="branchS_SAMEA5818803" data-name="branchS SAMEA5818803" class="cls-31" d="M511,177.82H618.18"/><path id="branchS_NODE32" data-name="branchS NODE32" class="cls-53" d="M512.15,144.79h8.24"/><path id="branchS_SAMEA5818822" data-name="branchS SAMEA5818822" class="cls-36" d="M519.33,166.07h12.85"/><path id="branchS_NODE33" data-name="branchS NODE33" class="cls-54" d="M520.39,123.5h3.54"/><path id="branchS_NODE34" data-name="branchS NODE34" class="cls-46" d="M523.93,145.52h2.35"/><path id="branchS_SAMEA5818821" data-name="branchS SAMEA5818821" class="cls-36" d="M526.28,154.33h5.9"/><path id="branchS_NODE35" data-name="branchS NODE35" class="cls-47" d="M526.28,136.71h3.54"/><path id="branchS_SAMEA5818830" data-name="branchS SAMEA5818830" class="cls-36" d="M529.82,142.59h2.36"/><path id="branchS_SAMEA5818825" data-name="branchS SAMEA5818825" class="cls-36" d="M529.82,130.84h2.36"/><path id="branchS_NODE36" data-name="branchS NODE36" class="cls-48" d="M523.93,101.48h3.53"/><path id="branchS_NODE37" data-name="branchS NODE37" class="cls-47" d="M527.46,113.23h2.36"/><path id="branchS_SAMEA5818829" data-name="branchS SAMEA5818829" class="cls-36" d="M529.82,119.1h2.36"/><path id="branchS_SAMEA5818826" data-name="branchS SAMEA5818826" class="cls-36" d="M529.82,107.36h2.36"/><path id="branchS_NODE38" data-name="branchS NODE38" class="cls-47" d="M527.46,89.74h2.36"/><path id="branchS_SAMEA5818828" data-name="branchS SAMEA5818828" class="cls-36" d="M529.82,95.61h2.36"/><path id="branchS_SAMEA5818818" data-name="branchS SAMEA5818818" class="cls-36" d="M529.82,83.87h2.36"/></g><g id="branchTee"><path id="branchT_NODE0" data-name="branchT NODE0" class="cls-55" d="M195.23,536V458.09"/><path id="branchT_NODE1" data-name="branchT NODE1" class="cls-56" d="M241.18,541.87V530.13"/><path id="branchT_NODE2" data-name="branchT NODE2" class="cls-57" d="M240,494.16V422"/><path id="branchT_NODE3" data-name="branchT NODE3" class="cls-58" d="M255.31,512.51v-36.7"/><path id="branchT_NODE4" data-name="branchT NODE4" class="cls-56" d="M269.45,518.38V506.64"/><path id="branchT_NODE5" data-name="branchT NODE5" class="cls-59" d="M262.38,489V462.6"/><path id="branchT_NODE6" data-name="branchT NODE6" class="cls-56" d="M273,494.89V483.15"/><path id="branchT_NODE7" data-name="branchT NODE7" class="cls-60" d="M273,471.41V453.79"/><path id="branchT_NODE8" data-name="branchT NODE8" class="cls-61" d="M277.7,459.66V447.92"/><path id="branchT_NODE9" data-name="branchT NODE9" class="cls-62" d="M253,436.18V407.86"/><path id="branchT_NODE10" data-name="branchT NODE10" class="cls-63" d="M260,424.43V391.28"/><path id="branchT_NODE11" data-name="branchT NODE11" class="cls-64" d="M340.14,412.69V369.87"/><path id="branchT_NODE12" data-name="branchT NODE12" class="cls-65" d="M382.55,401V338.79"/><path id="branchT_NODE13" data-name="branchT NODE13" class="cls-66" d="M403.76,389.2V288.37"/><path id="branchT_NODE14" data-name="branchT NODE14" class="cls-67" d="M453.24,360.62V216.12"/><path id="branchT_NODE15" data-name="branchT NODE15" class="cls-68" d="M508.61,377.46V343.79"/><path id="branchT_NODE16" data-name="branchT NODE16" class="cls-69" d="M551,365.71V321.86"/><path id="branchT_NODE17" data-name="branchT NODE17" class="cls-70" d="M562.81,345.16v-46.6"/><path id="branchT_NODE18" data-name="branchT NODE18" class="cls-71" d="M568.7,354V336.36"/><path id="branchT_NODE19" data-name="branchT NODE19" class="cls-56" d="M573.41,342.23V330.48"/><path id="branchT_NODE20" data-name="branchT NODE20" class="cls-58" d="M604,312.87V284.24"/><path id="branchT_NODE21" data-name="branchT NODE21" class="cls-56" d="M617,318.74V307"/><path id="branchT_NODE22" data-name="branchT NODE22" class="cls-72" d="M692.4,295.25v-22"/><path id="branchT_NODE23" data-name="branchT NODE23" class="cls-73" d="M708.9,283.51V263"/><path id="branchT_NODE24" data-name="branchT NODE24" class="cls-71" d="M713.61,271.77V254.15"/><path id="branchT_NODE25" data-name="branchT NODE25" class="cls-61" d="M718.32,260V248.28"/><path id="branchT_NODE26" data-name="branchT NODE26" class="cls-74" d="M468.56,236.54V195.71"/><path id="branchT_NODE27" data-name="branchT NODE27" class="cls-75" d="M482.69,216V175.43"/><path id="branchT_NODE28" data-name="branchT NODE28" class="cls-60" d="M499.19,224.79V207.18"/><path id="branchT_NODE29" data-name="branchT NODE29" class="cls-56" d="M505.08,213.05V201.3"/><path id="branchT_NODE30" data-name="branchT NODE30" class="cls-76" d="M499.19,189.56V161.3"/><path id="branchT_NODE31" data-name="branchT NODE31" class="cls-77" d="M512.15,177.82v-33"/><path id="branchT_NODE32" data-name="branchT NODE32" class="cls-78" d="M520.39,166.07V123.5"/><path id="branchT_NODE33" data-name="branchT NODE33" class="cls-79" d="M523.93,145.52v-44"/><path id="branchT_NODE34" data-name="branchT NODE34" class="cls-71" d="M526.28,154.33V136.71"/><path id="branchT_NODE35" data-name="branchT NODE35" class="cls-61" d="M529.82,142.59V130.84"/><path id="branchT_NODE36" data-name="branchT NODE36" class="cls-73" d="M527.46,113.23V89.74"/><path id="branchT_NODE37" data-name="branchT NODE37" class="cls-61" d="M529.82,119.1V107.36"/><path id="branchT_NODE38" data-name="branchT NODE38" class="cls-61" d="M529.82,95.61V83.87"/></g><g id="Tips"><circle id="tip_SAMEA5054093" data-name="tip SAMEA5054093" class="cls-80" cx="265.92" cy="541.87" r="6"/><circle id="tip_SAMEA5054092" data-name="tip SAMEA5054092" class="cls-80" cx="261.2" cy="530.13" r="6"/><circle id="tip_SAMEA3937653" data-name="tip SAMEA3937653" class="cls-80" cx="296.55" cy="518.38" r="6"/><circle id="tip_SAMEA5818811" data-name="tip SAMEA5818811" class="cls-80" cx="275.34" cy="506.64" r="6"/><circle id="tip_SAMN00715800" data-name="tip SAMN00715800" class="cls-80" cx="283.59" cy="494.89" r="6"/><circle id="tip_SAMEA5818806" data-name="tip SAMEA5818806" class="cls-80" cx="284.77" cy="483.15" r="6"/><circle id="tip_SAMEA5054090" data-name="tip SAMEA5054090" class="cls-80" cx="284.77" cy="471.41" r="6"/><circle id="tip_SAMEA5054089" data-name="tip SAMEA5054089" class="cls-80" cx="284.77" cy="459.66" r="6"/><circle id="tip_SAMEA3937654" data-name="tip SAMEA3937654" class="cls-80" cx="321.29" cy="447.92" r="6"/><circle id="tip_SAMEA7293136" data-name="tip SAMEA7293136" class="cls-80" cx="284.77" cy="436.18" r="6"/><circle id="tip_SAMEA5818809" data-name="tip SAMEA5818809" class="cls-80" cx="268.27" cy="424.43" r="6"/><circle id="tip_SAMEA5818817" data-name="tip SAMEA5818817" class="cls-80" cx="490.94" cy="412.69" r="6"/><circle id="tip_SAMEA5818815" data-name="tip SAMEA5818815" class="cls-80" cx="468.56" cy="400.95" r="6"/><circle id="tip_SAMEA6651390" data-name="tip SAMEA6651390" class="cls-80" cx="409.65" cy="389.2" r="6"/><circle id="tip_SAMEA7313243_45" data-name="tip SAMEA7313243 45" class="cls-80" cx="520.39" cy="377.46" r="6"/><circle id="tip_SAMEA5818800" data-name="tip SAMEA5818800" class="cls-80" cx="576.94" cy="365.71" r="6"/><circle id="tip_SAMEA5818798" data-name="tip SAMEA5818798" class="cls-80" cx="576.94" cy="353.97" r="6"/><circle id="tip_SAMEA5818799" data-name="tip SAMEA5818799" class="cls-80" cx="576.94" cy="342.23" r="6"/><circle id="tip_SAMEA5818801" data-name="tip SAMEA5818801" class="cls-80" cx="576.94" cy="330.48" r="6"/><circle id="tip_SAMEA7293135" data-name="tip SAMEA7293135" class="cls-80" cx="638.21" cy="318.74" r="6"/><circle id="tip_SAMEA7313236_38" data-name="tip SAMEA7313236 38" class="cls-80" cx="777.23" cy="307" r="6"/><circle id="tip_SAMEA3713715" data-name="tip SAMEA3713715" class="cls-80" cx="721.86" cy="295.25" r="6"/><circle id="tip_SAMEA3713713" data-name="tip SAMEA3713713" class="cls-80" cx="721.86" cy="283.51" r="6"/><circle id="tip_SAMEA3713712" data-name="tip SAMEA3713712" class="cls-80" cx="721.86" cy="271.77" r="6"/><circle id="tip_SAMEA3713711" data-name="tip SAMEA3713711" class="cls-80" cx="721.86" cy="260.02" r="6"/><circle id="tip_SAMEA3713714" data-name="tip SAMEA3713714" class="cls-80" cx="721.86" cy="248.28" r="6"/><circle id="tip_SAMEA6637004" data-name="tip SAMEA6637004" class="cls-80" cx="492.12" cy="236.54" r="6"/><circle id="tip_SAMEA5818805" data-name="tip SAMEA5818805" class="cls-80" cx="527.46" cy="224.79" r="6"/><circle id="tip_SAMEA7313246_49" data-name="tip SAMEA7313246 49" class="cls-80" cx="520.39" cy="213.05" r="6"/><circle id="tip_SAMEA6637002" data-name="tip SAMEA6637002" class="cls-80" cx="518.04" cy="201.3" r="6"/><circle id="tip_SAMEA5818808" data-name="tip SAMEA5818808" class="cls-80" cx="513.33" cy="189.56" r="6"/><circle id="tip_SAMEA5818803" data-name="tip SAMEA5818803" class="cls-80" cx="618.18" cy="177.82" r="6"/><circle id="tip_SAMEA5818822" data-name="tip SAMEA5818822" class="cls-80" cx="532.18" cy="166.07" r="6"/><circle id="tip_SAMEA5818821" data-name="tip SAMEA5818821" class="cls-80" cx="532.18" cy="154.33" r="6"/><circle id="tip_SAMEA5818830" data-name="tip SAMEA5818830" class="cls-80" cx="532.18" cy="142.59" r="6"/><circle id="tip_SAMEA5818825" data-name="tip SAMEA5818825" class="cls-80" cx="532.18" cy="130.84" r="6"/><circle id="tip_SAMEA5818829" data-name="tip SAMEA5818829" class="cls-80" cx="532.18" cy="119.1" r="6"/><circle id="tip_SAMEA5818826" data-name="tip SAMEA5818826" class="cls-80" cx="532.18" cy="107.36" r="6"/><circle id="tip_SAMEA5818828" data-name="tip SAMEA5818828" class="cls-80" cx="532.18" cy="95.61" r="6"/><circle id="tip_SAMEA5818818" data-name="tip SAMEA5818818" class="cls-80" cx="532.18" cy="83.87" r="6"/></g><g id="Tip_Labels" data-name="Tip Labels"><text class="cls-81" transform="translate(627.26 180.49)">Germany</text><text class="cls-81" transform="translate(786.43 310.32)">Russia</text><text class="cls-81" transform="translate(647.11 321.86)">Russia</text><text class="cls-81" transform="translate(739.72 273.64)">France</text><polyline class="cls-82" points="730.72 242.77 735.32 242.77 735.32 300.79 730.72 300.79"/><text class="cls-81" transform="translate(555.02 129.49)">Switzerland</text><polyline class="cls-82" points="545.65 80.38 550.25 80.38 550.25 171.3 545.65 171.3"/><text class="cls-81" transform="translate(595.59 351.62)">England</text><polyline class="cls-82" points="587.98 324.96 592.57 324.96 592.57 371.46 587.98 371.46"/><text class="cls-81" transform="translate(529.82 380.75)">Russia</text><text class="cls-81" transform="translate(419.83 391.29)">Lithuania</text><text class="cls-81" transform="translate(478.17 403.02)">England</text><text class="cls-81" transform="translate(502.72 414.79)">Germany</text><text class="cls-81" transform="translate(279.19 426.66)">Germany</text><polyline class="cls-82" points="305.23 526.02 309.83 526.02 309.83 545.72 305.23 545.72"/><text class="cls-81" transform="translate(271.81 531.75)">Norway</text><text class="cls-81" transform="translate(277.7 544.94)">France</text><text class="cls-81" transform="translate(305.88 520.73)">Spain</text><text class="cls-81" transform="translate(284.77 510.09)">Germany</text><text class="cls-81" transform="translate(292.94 498.07)">England</text><text class="cls-81" transform="translate(294.2 485.4)">Russia</text><text class="cls-81" transform="translate(330.74 450.3)">Russia</text><text class="cls-81" transform="translate(293.57 473.71)">The Netherlands</text><text class="cls-81" transform="translate(293.76 462.6)">The Netherlands</text><text class="cls-81" transform="translate(522.81 192.49)">Germany</text><text class="cls-81" transform="translate(528.84 204.53)">Lithuania</text><text class="cls-81" transform="translate(532.23 215.98)">Poland</text><text class="cls-81" transform="translate(537.31 228.13)">Germany</text><text class="cls-81" transform="translate(502.13 240.51)">Lithuania</text><text class="cls-81" transform="translate(293.57 438.75)">Italy</text></g><g id="Frame"><rect id="Frame-2" data-name="Frame" class="cls-83" x="78.89" y="68.02" width="766.34" height="489.07"/><g id="Xticks"><line class="cls-83" x1="108.05" y1="564.44" x2="108.05" y2="557.62"/><line class="cls-83" x1="225.86" y1="564.29" x2="225.86" y2="557.47"/><line class="cls-83" x1="289.86" y1="563.92" x2="289.86" y2="557.09"/><line class="cls-83" x1="343.67" y1="564.52" x2="343.67" y2="557.7"/><line class="cls-83" x1="461.49" y1="563.78" x2="461.49" y2="556.96"/><line class="cls-83" x1="579.3" y1="564.03" x2="579.3" y2="557.21"/><line class="cls-83" x1="697.11" y1="564.51" x2="697.11" y2="557.69"/><line class="cls-83" x1="814.93" y1="564.04" x2="814.93" y2="557.22"/></g></g><text class="cls-84" transform="translate(86.77 57.95)">THE SECOND <tspan class="cls-85" x="136.68" y="0">P</tspan><tspan x="148.54" y="0">ANDEMIC</tspan></text><polyline class="cls-86" points="78.89 68.02 78.89 33.43 340.34 33.43 340.34 68.02"/></g><g id="Annotation"><g id="Germany"><rect class="cls-87" x="228.88" y="297.61" width="62.29" height="18.8"/><text class="cls-88" transform="translate(235.34 311.26)">Germany</text></g><g id="England"><rect class="cls-87" x="526.95" y="251.68" width="62.29" height="18.8"/><text class="cls-88" transform="translate(536.27 265.33)">England</text></g><g id="Switzerland"><rect class="cls-87" x="445.59" y="81.85" width="78.68" height="18.8"/><text class="cls-88" transform="translate(453.32 95.5)">Switzerland</text></g><g id="France"><path class="cls-87" d="M723.19,236.35H660.9V217.56h62.29Z"/><text id="France-2" data-name="France" class="cls-88" transform="translate(673.25 231.07)">France</text></g><g id="Netherlands"><rect class="cls-87" x="268.05" y="328.48" width="99.09" height="18.8"/><text class="cls-88" transform="translate(272.91 342.13)">The Netherlands</text></g><text class="cls-89" transform="translate(331.39 486.77)"><tspan class="cls-85">T</tspan><tspan x="5.37" y="0">rue Outgroup</tspan></text><text class="cls-89" transform="translate(313.63 539.21)">False Outgroup</text><line class="cls-82" x1="328.84" y1="483.16" x2="325.35" y2="483.16"/><path d="M322.33,483.16a15.2,15.2,0,0,0,4.27-2.38l-.86,2.38.86,2.38A15.2,15.2,0,0,0,322.33,483.16Z"/><text class="cls-89" transform="translate(126.75 500.65)">False Root</text><line class="cls-82" x1="179.81" y1="498.2" x2="185.8" y2="498.2"/><path d="M188.82,498.2a15.25,15.25,0,0,0-4.28,2.38l.86-2.38-.86-2.37A15,15,0,0,0,188.82,498.2Z"/><line class="cls-82" x1="260.03" y1="316.41" x2="260.03" y2="393.07"/><path d="M260,399.11a30.45,30.45,0,0,0-4.76-8.55l4.76,1.72,4.75-1.72A30.18,30.18,0,0,0,260,399.11Z"/><line class="cls-82" x1="276.52" y1="347.24" x2="276.52" y2="440.42"/><path d="M276.52,446.46a30,30,0,0,0-4.76-8.55l4.76,1.72,4.75-1.72A30.18,30.18,0,0,0,276.52,446.46Z"/><line class="cls-90" x1="551.03" y1="270.51" x2="551.03" y2="330.81"/><path d="M551,336.23a27.18,27.18,0,0,0-4.27-7.67L551,330.1l4.26-1.54A26.91,26.91,0,0,0,551,336.23Z"/><line class="cls-90" x1="562.81" y1="270.51" x2="562.81" y2="308.62"/><path d="M562.81,314a27.18,27.18,0,0,0-4.27-7.67l4.27,1.54,4.26-1.54A26.91,26.91,0,0,0,562.81,314Z"/><line class="cls-90" x1="692.04" y1="236.35" x2="692.04" y2="271.32"/><path d="M692,276.74a26.94,26.94,0,0,0-4.27-7.67l4.27,1.54,4.27-1.54A27.18,27.18,0,0,0,692,276.74Z"/><line class="cls-90" x1="520.39" y1="100.65" x2="520.39" y2="131.17"/><path d="M520.39,136.59a27.16,27.16,0,0,0-4.26-7.67l4.26,1.54,4.27-1.54A27.18,27.18,0,0,0,520.39,136.59Z"/></g><g id="Legend"><g id="Legend-2" data-name="Legend"><rect class="cls-91" x="116.3" y="89.14" width="147.84" height="112.16"/><text class="cls-92" transform="translate(154.86 127.76)">Strong Clade Support</text><text class="cls-92" transform="translate(154.08 144.87)">Genomic Sample</text><text class="cls-92" transform="translate(154.86 166.18)">Strong Country Support</text><text class="cls-93" transform="translate(169.84 107.91)">Legend</text><text class="cls-94" transform="translate(134.37 132.57)">*</text><path id="conf_NODE19-2" data-name="conf NODE19" class="cls-95" d="M128.5,181.61h16.94"/><text class="cls-92" transform="translate(154.86 185.24)">Date Uncertainty</text></g><polygon class="cls-96" points="136.97 168.67 133.08 162.83 136.97 157.11 140.85 162.83 136.97 168.67"/><circle id="tip_SAMEA3937654-2" data-name="tip SAMEA3937654" class="cls-80" cx="137.06" cy="141.94" r="6"/></g><g id="Nodes"><polygon class="cls-97" points="260.02 413.88 256.14 408.03 260.02 402.31 263.91 408.03 260.02 413.88"/><polygon class="cls-97" points="551.02 349.57 547.14 343.72 551.02 338.01 554.91 343.72 551.02 349.57"/><polygon class="cls-97" points="562.81 327.64 558.92 321.8 562.81 316.08 566.69 321.8 562.81 327.64"/><polygon class="cls-97" points="692.04 290.04 688.16 284.19 692.04 278.47 695.93 284.19 692.04 290.04"/><polygon class="cls-97" points="520.39 150.04 516.51 144.19 520.39 138.48 524.28 144.19 520.39 150.04"/><polygon class="cls-97" points="276.52 457.99 272.64 452.14 276.52 446.43 280.4 452.14 276.52 457.99"/></g></g></svg>