<svg xmlns="http://www.w3.org/2000/svg" viewBox="0 0 932.45 907.41"><defs><style>.cls-1,.cls-10{fill:#fff;}.cls-12,.cls-2,.cls-3,.cls-4,.cls-9{fill:none;}.cls-2,.cls-3{stroke:#ddd;}.cls-2{stroke-width:2.72px;}.cls-3{stroke-width:2.77px;}.cls-10,.cls-12,.cls-4{stroke:#231f20;}.cls-4{stroke-width:2px;}.cls-5,.cls-8{font-size:16px;}.cls-11,.cls-14,.cls-5,.cls-8{font-family:ArialMT, Arial;}.cls-6{letter-spacing:-0.06em;}.cls-7{opacity:0.05;}.cls-8{isolation:isolate;fill:#333;}.cls-9{stroke:#000;}.cls-11{font-size:12px;}.cls-13{fill:#231f20;}.cls-14{font-size:17px;}.cls-15{letter-spacing:-0.02em;}</style></defs><g id="Layer_2" data-name="Layer 2"><g id="Figure_2" data-name="Figure 2"><g id="Timeline"><g id="Background"><rect class="cls-1" width="932.45" height="907.41"/></g><g id="majorGrid"><g id="Vertical"><path class="cls-2" d="M130.31,817.4V216.28"/><path class="cls-2" d="M217.37,817.4V216.28"/><path class="cls-2" d="M304.44,817.4V216.28"/><path class="cls-3" d="M391.55,817.4V216.28"/><path class="cls-3" d="M478.61,817.4V216.28"/><path class="cls-3" d="M565.68,817.4V216.28"/><path class="cls-3" d="M652.74,817.4V216.28"/><path class="cls-3" d="M739.81,817.4V216.28"/></g></g><g id="Time_Periods" data-name="Time Periods"><polyline class="cls-4" points="86.77 201.07 86.77 188.48 391.5 188.48 391.5 201.07"/><polyline class="cls-4" points="478.35 199.93 478.35 187.34 530.75 187.34 530.75 199.93"/><g id="Bronze_Age" data-name="Bronze Age"><text class="cls-5" transform="translate(139.28 179.59)">Late Neolithic Bronze<tspan class="cls-6" x="152.09" y="0"> </tspan><tspan x="155.65" y="0">Age</tspan></text></g><g id="First_Pandemic" data-name="First Pandemic"><text class="cls-5" transform="translate(491.42 159.42)">First<tspan x="-20.02" y="19.2">Pandemic</tspan></text></g><g id="Third_Pandemic" data-name="Third Pandemic"><text class="cls-5" transform="translate(732.73 159.25)">Third<tspan x="-17.35" y="19.2">Pandemic</tspan></text></g><polyline class="cls-4" points="717.46 199.93 717.46 187.34 766.31 187.34 766.31 199.93"/><polyline class="cls-4" points="618.61 199.93 618.61 187.34 707.34 187.34 707.34 199.93"/><g id="Second_Pandemic" data-name="Second Pandemic"><text class="cls-5" transform="translate(633.62 160.27)">Second <tspan x="-6.22" y="19.2">Pandemic</tspan></text></g><rect id="Bronze_Age_Blackout" data-name="Bronze Age Blackout" class="cls-7" x="43.24" y="214.09" width="348.26" height="601.57"/><rect class="cls-7" x="391.5" y="215.24" width="85.59" height="601.57"/><rect class="cls-7" x="530.67" y="215.24" width="87.94" height="601.57"/><rect class="cls-7" x="707.16" y="215.24" width="10.29" height="601.57"/></g><g id="X_Axis" data-name="X Axis"><g id="Axis_Break" data-name="Axis Break"><line class="cls-4" x1="372.14" y1="824.26" x2="383.79" y2="812.6"/><line class="cls-4" x1="382.09" y1="824.26" x2="393.74" y2="812.6"/><line class="cls-4" x1="372.14" y1="221.66" x2="383.79" y2="210"/><line class="cls-4" x1="382.09" y1="221.66" x2="393.74" y2="210"/></g><g id="Xticks"><line class="cls-4" x1="130.31" y1="828.44" x2="130.31" y2="818.1"/><line class="cls-4" x1="173.84" y1="824.88" x2="173.84" y2="818.1"/><line class="cls-4" x1="217.37" y1="828.44" x2="217.37" y2="818.1"/><line class="cls-4" x1="43.24" y1="828.44" x2="43.24" y2="818.1"/><line class="cls-4" x1="86.77" y1="824.88" x2="86.77" y2="818.1"/><line class="cls-4" x1="260.82" y1="824.88" x2="260.82" y2="818.1"/><line class="cls-4" x1="304.44" y1="828.44" x2="304.44" y2="818.1"/><line class="cls-4" x1="347.97" y1="824.88" x2="347.97" y2="818.1"/><line class="cls-4" x1="391.55" y1="828.44" x2="391.55" y2="818.1"/><line class="cls-4" x1="478.35" y1="828.44" x2="478.35" y2="818.1"/><line class="cls-4" x1="513.28" y1="823.27" x2="513.28" y2="818.1"/><line class="cls-4" x1="530.75" y1="823.27" x2="530.75" y2="818.1"/><line class="cls-4" x1="548.21" y1="823.27" x2="548.21" y2="818.1"/><line class="cls-4" x1="495.82" y1="823.27" x2="495.82" y2="818.1"/><line class="cls-4" x1="426.48" y1="823.27" x2="426.48" y2="818.1"/><line class="cls-4" x1="443.95" y1="823.27" x2="443.95" y2="818.1"/><line class="cls-4" x1="461.41" y1="823.27" x2="461.41" y2="818.1"/><line class="cls-4" x1="409.02" y1="823.27" x2="409.02" y2="818.1"/><line class="cls-4" x1="565.68" y1="828.44" x2="565.68" y2="818.1"/><line class="cls-4" x1="600.35" y1="823.27" x2="600.35" y2="818.1"/><line class="cls-4" x1="617.81" y1="823.27" x2="617.81" y2="818.1"/><line class="cls-4" x1="635.28" y1="823.27" x2="635.28" y2="818.1"/><line class="cls-4" x1="582.88" y1="823.27" x2="582.88" y2="818.1"/><line class="cls-4" x1="652.74" y1="828.44" x2="652.74" y2="818.1"/><line class="cls-4" x1="687.41" y1="823.27" x2="687.41" y2="818.1"/><line class="cls-4" x1="704.88" y1="823.27" x2="704.88" y2="818.1"/><line class="cls-4" x1="722.34" y1="823.27" x2="722.34" y2="818.1"/><line class="cls-4" x1="669.95" y1="823.27" x2="669.95" y2="818.1"/><line class="cls-4" x1="739.81" y1="828.44" x2="739.81" y2="818.1"/><line class="cls-4" x1="757.01" y1="823.27" x2="757.01" y2="818.1"/></g><g id="X_Axis_Labels" data-name="X Axis Labels"><text class="cls-8" transform="translate(108.01 846.09)">-3000</text><text class="cls-8" transform="translate(22.25 846.09)">-4000</text><text class="cls-8" transform="translate(193.69 846.09)">-2000</text><text class="cls-8" transform="translate(279.82 846.09)">-1000</text><text class="cls-8" transform="translate(387.68 846.09)">0</text><text class="cls-8" transform="translate(464.67 846.09)">500</text><text class="cls-8" transform="translate(547.08 846.09)">1000</text><text class="cls-8" transform="translate(634.15 846.09)">1500</text><text class="cls-8" transform="translate(721.21 846.09)">2000</text></g></g><g id="Frame"><polyline class="cls-4" points="387.47 216.28 766.31 216.28 766.4 817.4 388.97 817.4"/><polyline class="cls-4" points="378.67 817.4 43.24 817.4 43.24 216.28 377.97 216.28"/></g><g id="Epidemics"><g id="Plague_of_Justinian" data-name="Plague of Justinian"><line id="Line" class="cls-9" x1="486.37" y1="817.4" x2="486.37" y2="773.73"/><g id="Justinian_Label" data-name="Justinian Label"><rect class="cls-10" x="431.63" y="756.76" width="113.29" height="39.05"/><text class="cls-11" transform="translate(437.99 773.73)">Plague of Justinian<tspan x="15.35" y="14.4">541 - 542 CE</tspan></text></g></g><g id="Black_Death" data-name="Black Death"><line id="Line-2" data-name="Line" class="cls-12" x1="626.14" y1="817.4" x2="626.14" y2="779.08"/><g id="Black_Death-2" data-name="Black Death"><rect class="cls-10" x="566.27" y="756.33" width="113.29" height="39.05"/><text class="cls-11" transform="translate(590.98 773.3)">Black Death<tspan x="-9.68" y="14.4">1346 - 1353 CE</tspan></text></g></g></g><g id="Historical_Evidence" data-name="Historical Evidence"><line class="cls-4" x1="86.43" y1="114.14" x2="761.95" y2="114.14"/><rect class="cls-13" x="85.43" y="107.64" width="2" height="13"/><path class="cls-13" d="M774.62,114.14c-6,2.22-13.36,6-17.94,10l3.61-10-3.61-10C761.26,108.16,768.66,111.93,774.62,114.14Z"/><line class="cls-4" x1="507.71" y1="114.14" x2="761.95" y2="114.14"/><rect class="cls-13" x="506.71" y="107.64" width="2" height="13"/><path class="cls-13" d="M774.62,114.14c-6,2.22-13.36,6-17.94,10l3.61-10-3.61-10C761.26,108.16,768.66,111.93,774.62,114.14Z"/><line class="cls-4" x1="660.77" y1="114.14" x2="761.95" y2="114.14"/><rect class="cls-13" x="659.77" y="107.64" width="2" height="13"/><path class="cls-13" d="M774.62,114.14c-6,2.22-13.36,6-17.94,10l3.61-10-3.61-10C761.26,108.16,768.66,111.93,774.62,114.14Z"/><text class="cls-14" transform="translate(33.23 72.29)">Earliest Form<tspan x="14.79" y="20.4">of </tspan><tspan class="cls-15" x="33.69" y="20.4">W</tspan><tspan x="49.43" y="20.4">riting</tspan></text><text class="cls-14" transform="translate(462.31 72.29)">3 Historical <tspan x="1.4" y="20.4">Catalogues</tspan></text><text class="cls-14" transform="translate(635.26 53.91)"><tspan class="cls-15">W</tspan><tspan x="15.74" y="0">eekly</tspan><tspan x="2.68" y="20.4">Bills of</tspan><tspan x="-4.4" y="40.8">Mortality</tspan></text><text class="cls-14" transform="translate(728.34 72.29)">WHO and <tspan x="-16.54" y="20.4">National CDCs</tspan></text></g></g></g></g></svg>